<svg width="63" height="124" viewBox="0 0 63 124" fill="none" xmlns="http://www.w3.org/2000/svg">
<path d="M34.2673 0.721619C33.2601 0.755745 30.9616 0.900795 29.7945 1.01171C27.0694 1.27621 24.1369 1.57483 23.1298 1.69428C22.7566 1.73694 22.0872 1.81373 21.6488 1.86492C20.926 1.95878 20.2211 2.05263 18.5682 2.29153C15.7542 2.7096 11.7495 3.63961 9.41539 4.4331C4.06586 6.23338 1.28743 8.58824 0.315869 12.1291C0.138144 12.769 0.120371 12.914 0.120371 13.7758C0.114447 14.5949 0.132219 14.774 0.256627 15.1409C0.333641 15.3713 0.428428 15.6528 0.463973 15.7638C0.499518 15.8832 0.700939 16.2245 0.914209 16.5317C1.3289 17.1289 1.36445 17.163 2.80994 17.9053C4.50425 18.7756 5.29809 19.3473 6.69027 20.6868C7.7033 21.6595 8.30164 22.5639 9.13103 24.3471C9.91894 26.0364 10.0907 26.8043 10.5351 30.4476C10.9616 33.9799 11.0386 35.3962 11.1038 40.7714C11.1512 45.3191 11.163 45.5494 11.4948 47.9384C11.8384 50.4127 12.2353 52.196 12.8277 53.9536C13.041 54.585 13.195 54.9774 13.3016 55.1566C13.3431 55.2334 13.4083 55.3614 13.4438 55.4467C13.6215 55.8904 14.0244 56.6753 14.3798 57.2811C14.605 57.6565 14.9663 58.2708 15.1796 58.6377C16.1867 60.3527 16.8976 61.3765 17.65 62.1871C17.8455 62.4004 18.0173 62.5881 18.035 62.6137C18.0528 62.6393 18.2898 62.8185 18.5682 63.0147C19.4509 63.6375 19.4805 64.013 18.7696 65.5743C18.5445 66.0607 18.118 66.7518 17.3715 67.8183C16.785 68.663 16.2756 69.3541 16.2459 69.3541C16.2163 69.3541 16.0623 69.5332 15.9023 69.7466C15.7424 69.9684 15.5469 70.2073 15.4758 70.2841C15.3988 70.3523 15.1914 70.6168 15.0137 70.8557C14.836 71.1032 14.5931 71.4018 14.4805 71.5383C14.368 71.6663 13.8704 72.3574 13.3787 73.057C12.6441 74.1235 12.4604 74.4392 12.3123 74.9C11.9746 75.9323 11.9687 75.975 12.0457 76.4955C12.1523 77.1439 12.413 77.6558 13.432 79.1916C13.8941 79.8827 14.0599 80.3264 14.0659 80.8298C14.0659 81.5721 13.7341 82.8348 13.3609 83.5174C13.272 83.6795 13.1654 83.9525 13.1298 84.1147C13.0943 84.2768 12.9877 84.7034 12.9047 85.0532C12.8159 85.403 12.7329 85.8467 12.7211 86.0344C12.6974 86.3671 12.7092 86.3927 13.0824 86.8705C13.3253 87.1777 13.5208 87.519 13.6038 87.7664C13.7637 88.2613 13.817 89.251 13.7045 89.8141C13.6097 90.326 13.0291 92.0154 12.6618 92.8772C12.1464 94.0717 12.0872 94.302 12.0872 95.1638C12.0813 95.7184 12.1109 96.034 12.1879 96.3156C12.3538 96.8958 12.8929 97.8855 13.5741 98.8326C14.2199 99.7455 14.3798 100.112 14.4509 100.897C14.4983 101.443 14.4095 102.126 14.1725 103.013C14.0066 103.611 13.9296 103.773 13.5386 104.319C13.1713 104.831 11.8443 106.213 11.7199 106.213C11.7021 106.213 11.5777 106.324 11.4415 106.46C11.1393 106.75 10.3929 107.407 10.3514 107.407C10.3396 107.407 10.1678 107.561 9.97818 107.749C9.78861 107.936 9.61088 108.09 9.59311 108.09C9.56941 108.09 9.44501 108.201 9.30875 108.329C9.17249 108.457 8.98292 108.619 8.88221 108.687C8.78742 108.755 8.59785 108.909 8.46752 109.037C8.14761 109.344 7.42487 109.967 7.39525 109.967C7.28269 109.967 6.24596 110.718 5.74833 111.153C5.52913 111.358 5.13814 111.648 4.88932 111.801C4.64051 111.955 4.13103 112.279 3.75781 112.527C3.38459 112.766 2.90473 113.064 2.69146 113.184C2.27084 113.423 1.5007 114.122 1.10971 114.617C0.440276 115.453 0.37511 116.707 0.937906 117.902C1.14525 118.346 1.24004 118.491 1.68435 119.011C1.86208 119.224 2.02203 119.421 2.02795 119.455C2.0398 119.497 2.07535 119.523 2.11089 119.523C2.14051 119.523 2.24122 119.591 2.32416 119.685C2.41302 119.77 2.58482 119.924 2.70923 120.026C2.82771 120.12 3.01729 120.274 3.12392 120.359C3.47345 120.649 4.75307 121.178 6.21634 121.656C7.33008 122.014 8.6334 122.279 11.24 122.68C12.9462 122.936 13.0054 122.944 15.3099 123.192C18.3431 123.516 21.0267 123.627 26.0623 123.627C30.1085 123.627 31.868 123.576 35.4521 123.362C39.9071 123.089 44.6227 122.56 48.2957 121.912C49.6405 121.673 49.9604 121.613 51.0326 121.392C52.1168 121.17 54.0066 120.709 54.7945 120.462C55.1203 120.368 55.5054 120.248 55.6535 120.206C55.9201 120.129 57.8691 119.412 58.5089 119.148C59.0362 118.943 59.7649 118.525 60.4521 118.047C61.4414 117.356 62.0516 116.358 62.0516 115.419C62.0516 114.95 61.8205 114.267 61.5303 113.875C61.1867 113.414 60.8371 113.115 60.1381 112.672C59.6108 112.347 59.4094 112.262 57.5788 111.58C55.8786 110.94 54.5338 110.291 53.8881 109.796C53.5504 109.54 52.6559 108.474 51.9331 107.459C51.157 106.384 50.8312 105.599 50.4225 103.824C50.1262 102.561 50.0788 102.1 50.144 101.205C50.2033 100.368 50.2625 100.078 50.6061 98.7814C50.9201 97.604 51.0267 96.9982 51.1334 95.761C51.2755 94.1826 51.2518 93.0478 51.0741 92.4761C50.9971 92.2287 50.5587 91.5376 50.4817 91.5376C50.4521 91.5376 50.3573 91.4694 50.2743 91.384C50.0492 91.1622 49.5042 90.855 49.3383 90.855C49.2672 90.855 49.1843 90.8124 49.1665 90.7697C49.1488 90.7185 49.054 90.6844 48.9651 90.6844C48.7755 90.6844 48.4734 90.4882 48.3608 90.2919C48.3194 90.2237 48.2127 90.1042 48.1298 90.0445C47.9343 89.8994 47.5966 88.7732 47.5966 88.2783C47.5966 87.6128 47.7803 86.8364 48.1772 85.8211C48.3905 85.2836 48.4201 84.874 48.2601 84.6437C48.2009 84.5583 47.9462 84.3365 47.6973 84.1659C47.1108 83.7478 46.7554 83.287 46.5658 82.7069C46.2755 81.828 46.4118 81.0602 47.099 79.7206C47.2886 79.3452 47.5196 78.8845 47.6085 78.6968C47.7033 78.5005 47.8928 78.1848 48.0409 77.9801C48.2542 77.69 48.3371 77.4937 48.4379 77.0074C48.5563 76.4699 48.5741 76.2139 48.5682 74.9853C48.5682 73.3386 48.5149 73.0144 48.1476 72.2721C47.7862 71.5383 47.7329 71.4786 46.9805 70.9325C46.6191 70.6766 46.1393 70.3097 45.9082 70.122C45.4699 69.7721 45.1677 69.5503 44.4864 69.1066C44.2613 68.9531 43.971 68.7142 43.8526 68.5776C43.7341 68.4411 43.6097 68.3302 43.58 68.3302C43.5504 68.3302 43.4793 68.2534 43.4201 68.1596C43.3609 68.0657 43.2779 67.9889 43.2424 67.9889C43.1535 67.9889 42.6914 67.1016 42.5729 66.7091C42.4781 66.3678 42.5018 65.8303 42.6381 65.4634C42.6855 65.3269 42.8395 64.9088 42.9699 64.5334C43.3194 63.5522 43.3668 63.4413 43.5267 63.2536C43.6037 63.1597 43.7696 62.8526 43.894 62.571C44.2139 61.8543 44.7708 60.7963 45.1677 60.1394C45.7661 59.1496 46.9568 56.6839 47.2945 55.7283C47.5611 54.9518 47.798 54.056 47.9995 53.0492C48.2305 51.9059 48.3075 51.3171 48.6334 48.365C49.054 44.5341 49.439 41.5479 50.144 36.6334C50.4461 34.5344 50.6535 33.3229 51.0326 31.5311C51.6014 28.835 52.0161 27.3077 52.9461 24.4751C53.2661 23.5109 53.6511 22.7175 54.516 21.2585C55.1973 20.1066 55.5587 19.6715 57.0634 18.1442C58.4319 16.7535 59.048 16.0368 59.6227 15.158C60.1381 14.356 60.4106 13.7331 60.6594 12.769C60.9615 11.6001 60.9497 11.0199 60.6002 9.98751C59.5812 7.01833 56.9094 4.58667 53.189 3.23859C50.689 2.33419 46.2104 1.37859 42.7684 1.01171C40.5824 0.781342 36.6428 0.644829 34.2673 0.721619ZM39.2317 2.9741C41.6132 3.09355 42.6855 3.19594 44.7234 3.49456C47.6203 3.91264 51.5717 4.87676 53.3964 5.62759C54.99 6.27603 56.6369 7.34255 57.5255 8.29815C58.5623 9.40733 59.3265 10.8237 59.3265 11.6171C59.3265 12.1291 59.2198 12.496 58.9769 12.8287C58.657 13.2553 57.7566 13.9464 57.4011 14.0317C57.0042 14.1256 56.1926 14.3986 56.0386 14.4925C55.9734 14.5351 55.7897 14.5863 55.6239 14.6205C55.3277 14.6717 54.9604 14.7399 53.9947 14.9191C52.4722 15.2006 49.522 15.5761 47.33 15.7638C46.8087 15.8064 45.9556 15.8832 45.4343 15.9344C44.913 15.9771 44.445 16.0112 44.3976 16.0197C42.9876 16.088 40.9082 16.216 40.2507 16.2842C38.272 16.4805 36.3526 16.5317 31.9568 16.5317C27.573 16.5317 25.8727 16.489 22.7151 16.2842C21.9805 16.2416 20.772 16.1648 20.0196 16.1136C16.945 15.9173 14.9841 15.8491 11.6073 15.815C9.65235 15.7979 7.91065 15.7552 7.73885 15.7296C7.56112 15.6955 6.93909 15.6358 6.34667 15.5931C5.75425 15.5505 5.00188 15.4737 4.67605 15.431C4.35022 15.3798 3.92368 15.3201 3.72819 15.303C3.1417 15.2604 1.95686 14.5949 1.79691 14.2195C1.60734 13.7843 1.55402 13.4004 1.63103 13.0591C1.85615 12.0779 2.6026 10.8066 3.43198 9.99604C4.20805 9.24522 5.60022 8.34934 7.0398 7.6753C9.71752 6.42108 14.2199 5.20099 18.6867 4.50989C19.0303 4.45869 19.5339 4.3819 19.8123 4.33924C21.3052 4.10887 23.7578 3.82732 27.2767 3.48603C27.7803 3.43484 28.5267 3.35805 28.9355 3.31538C29.7412 3.23006 31.5658 3.08502 33.2009 2.98264C34.7412 2.88025 37.3715 2.88025 39.2317 2.9741Z" fill="#1A1C20"/>
<path d="M8.76376 48.2884C7.09315 48.5785 6.11566 48.8259 5.26851 49.1501C4.9723 49.2696 4.00666 49.7132 3.84671 49.8156C3.78154 49.8498 3.62159 49.9521 3.49126 50.0289C2.63225 50.5494 2.03984 51.104 1.89173 51.5306C1.69031 52.0766 1.87396 52.7336 2.26495 52.8787C2.54339 52.9896 2.73296 52.9128 3.24836 52.4606C3.78746 51.9913 5.04339 51.3429 6.03865 51.0272C6.61922 50.8395 7.54931 50.6518 7.63817 50.703C7.70926 50.7371 7.72703 50.9077 7.72703 51.4965C7.73296 53.1517 8.10618 54.2097 8.74599 54.3803C9.214 54.5083 9.62869 54.0732 9.84788 53.2114C9.95452 52.7848 10.0849 51.5903 10.1145 50.7542L10.1263 50.3702L10.4403 50.3105C10.9439 50.2252 11.2045 49.7303 11.0979 49.0648C11.0446 48.715 10.8965 48.459 10.6476 48.314C10.4344 48.1775 9.45097 48.1689 8.76376 48.2884Z" fill="#1A1C20"/>
<path d="M49.522 50.942C49.2791 51.215 49.1784 51.6246 49.2554 52.0341C49.4035 52.8361 50.689 53.8088 52.1345 54.2269C52.9461 54.4572 54.7649 54.4316 55.8904 54.1757C57.7921 53.7491 58.2127 53.5699 58.4615 53.0835C58.6215 52.7764 58.6215 52.1962 58.4615 51.889C58.2186 51.4112 58.0113 51.3942 56.8383 51.7269C56.2637 51.889 55.5054 52.0853 55.1499 52.1621C54.3916 52.3242 53.0113 52.3498 52.4544 52.2047C51.6487 52.0085 50.8549 51.5478 50.4402 51.0529C50.1381 50.686 49.7826 50.6434 49.522 50.942Z" fill="#1A1C20"/>
</svg>
