<svg width="137" height="143" viewBox="0 0 137 143" fill="none" xmlns="http://www.w3.org/2000/svg">
<path d="M75.3942 0.255295C73.1827 0.294708 68.1351 0.462265 65.5723 0.590393C59.5881 0.895935 53.1486 1.24089 50.937 1.37888C50.1174 1.42815 48.6474 1.51686 47.6847 1.57599C46.0976 1.6844 44.5495 1.79282 40.9199 2.06879C34.7406 2.55173 25.9464 3.62604 20.8208 4.54263C9.0735 6.62224 2.9722 9.34248 0.838695 13.4327C0.44842 14.1719 0.409393 14.3395 0.409393 15.3349C0.396383 16.2811 0.435411 16.4881 0.708603 16.9119C0.877723 17.178 1.08587 17.5032 1.16392 17.6314C1.24198 17.7693 1.68429 18.1636 2.15262 18.5184C3.06326 19.2083 3.14132 19.2477 6.31556 20.1052C10.0362 21.1105 11.7794 21.7709 14.8366 23.3183C17.0611 24.4418 18.3751 25.4866 20.1963 27.5465C21.9266 29.4979 22.3038 30.385 23.2795 34.5935C24.2162 38.6738 24.3853 40.3099 24.5284 46.5192C24.6325 51.7724 24.6585 52.0385 25.387 54.7982C26.1415 57.6564 27.0131 59.7163 28.3141 61.7467C28.7824 62.476 29.1206 62.9294 29.3548 63.1363C29.4459 63.2251 29.589 63.3729 29.667 63.4715C30.0573 63.984 30.9419 64.8907 31.7225 65.5905C32.2168 66.0241 33.0104 66.7338 33.4787 67.1576C35.6903 69.1386 37.2514 70.3214 38.9035 71.2577C39.3328 71.5041 39.7101 71.7209 39.7491 71.7505C39.7881 71.78 40.3085 71.987 40.9199 72.2137C42.8583 72.9332 42.9234 73.3668 41.3623 75.1705C40.8679 75.7323 39.9312 76.5306 38.2921 77.7626C37.0042 78.7383 35.8854 79.5367 35.8203 79.5367C35.7553 79.5367 35.4171 79.7436 35.0658 79.99C34.7146 80.2463 34.2853 80.5223 34.1292 80.611C33.96 80.6898 33.5047 80.9954 33.1144 81.2713C32.7242 81.5571 32.1908 81.9021 31.9436 82.0598C31.6964 82.2076 30.6037 83.006 29.5239 83.8142C27.9108 85.0462 27.5075 85.4108 27.1823 85.9431C26.4407 87.1356 26.4277 87.1849 26.5968 87.7861C26.831 88.5352 27.4034 89.1265 29.641 90.9006C30.6557 91.6989 31.02 92.2114 31.033 92.7929C31.033 93.6504 30.3045 95.1091 29.4849 95.8976C29.2897 96.0848 29.0556 96.4002 28.9775 96.5875C28.8995 96.7748 28.6653 97.2676 28.4832 97.6716C28.288 98.0757 28.1059 98.5883 28.0799 98.8051C28.0279 99.1895 28.0539 99.219 28.8735 99.771C29.4068 100.126 29.8361 100.52 30.0183 100.806C30.3695 101.377 30.4866 102.521 30.2394 103.171C30.0313 103.763 28.7564 105.714 27.9498 106.71C26.818 108.089 26.6879 108.356 26.6879 109.351C26.6749 109.992 26.7399 110.356 26.9091 110.682C27.2733 111.352 28.4572 112.495 29.9532 113.589C31.3712 114.644 31.7225 115.067 31.8786 115.974C31.9826 116.605 31.7875 117.393 31.2671 118.418C30.9029 119.108 30.7338 119.296 29.8752 119.926C29.0686 120.518 26.1545 122.114 25.8813 122.114C25.8423 122.114 25.5691 122.243 25.2699 122.4C24.6064 122.735 22.9673 123.494 22.8762 123.494C22.8502 123.494 22.4729 123.672 22.0566 123.889C21.6404 124.105 21.2501 124.283 21.2111 124.283C21.159 124.283 20.8858 124.411 20.5866 124.559C20.2874 124.707 19.8711 124.894 19.65 124.973C19.4418 125.052 19.0255 125.229 18.7393 125.377C18.0368 125.732 16.4497 126.451 16.3847 126.451C16.1375 126.451 13.8609 127.318 12.7681 127.821C12.2868 128.058 11.4282 128.393 10.8818 128.57C10.3354 128.748 9.2166 129.122 8.39702 129.408C7.57744 129.684 6.5237 130.029 6.05537 130.167C5.13172 130.443 3.44053 131.251 2.58192 131.823C1.11189 132.788 0.968787 134.237 2.20466 135.617C2.65998 136.13 2.86813 136.297 3.84381 136.898C4.23409 137.145 4.58534 137.371 4.59834 137.411C4.62436 137.46 4.70242 137.49 4.78047 137.49C4.84552 137.49 5.06667 137.569 5.2488 137.677C5.44394 137.776 5.82121 137.953 6.0944 138.071C6.35458 138.18 6.77088 138.357 7.00504 138.456C7.77258 138.791 10.5826 139.402 13.7958 139.954C16.2416 140.368 19.1036 140.673 24.8276 141.136C28.5742 141.432 28.7043 141.442 33.7649 141.728C40.4256 142.102 46.3187 142.23 57.3765 142.23C66.2618 142.23 70.1255 142.171 77.9961 141.925C87.779 141.61 98.1343 140.998 106.2 140.249C109.153 139.973 109.856 139.904 112.21 139.648C114.591 139.392 118.741 138.86 120.471 138.574C121.187 138.465 122.032 138.328 122.357 138.278C122.943 138.19 127.223 137.362 128.628 137.056C129.786 136.82 131.386 136.337 132.895 135.785C135.067 134.986 136.407 133.833 136.407 132.749C136.407 132.207 135.9 131.418 135.262 130.965C134.508 130.433 133.74 130.088 132.205 129.575C131.047 129.201 130.605 129.102 126.585 128.314C122.852 127.575 119.899 126.826 118.481 126.254C117.739 125.958 115.775 124.726 114.188 123.553C112.483 122.312 111.768 121.405 110.87 119.355C110.22 117.896 110.116 117.364 110.259 116.329C110.389 115.363 110.519 115.028 111.274 113.53C111.963 112.17 112.197 111.47 112.431 110.041C112.744 108.218 112.692 106.907 112.301 106.246C112.132 105.961 111.169 105.162 111 105.162C110.935 105.162 110.727 105.083 110.545 104.985C110.051 104.729 108.854 104.374 108.49 104.374C108.333 104.374 108.151 104.324 108.112 104.275C108.073 104.216 107.865 104.177 107.67 104.177C107.254 104.177 106.59 103.95 106.343 103.723C106.252 103.644 106.018 103.506 105.836 103.437C105.406 103.27 104.665 101.969 104.665 101.397C104.665 100.628 105.068 99.7315 105.94 98.5587C106.408 97.9378 106.473 97.4647 106.122 97.1986C105.992 97.1 105.432 96.8438 104.886 96.6466C103.598 96.1637 102.818 95.6315 102.401 94.9613C101.764 93.9461 102.063 93.0591 103.572 91.5117C103.988 91.078 104.496 90.5458 104.691 90.329C104.899 90.1023 105.315 89.7376 105.641 89.5011C106.109 89.166 106.291 88.9393 106.512 88.3775C106.772 87.7565 106.811 87.4609 106.798 86.0416C106.798 84.1394 106.681 83.7649 105.875 82.9074C105.081 82.0598 104.964 81.9908 103.312 81.36C102.518 81.0644 101.465 80.6405 100.957 80.4237C99.9946 80.0196 99.3311 79.7634 97.8351 79.2509C97.3407 79.0734 96.7033 78.7975 96.4431 78.6398C96.1829 78.4821 95.9097 78.354 95.8447 78.354C95.7796 78.354 95.6235 78.2653 95.4934 78.1568C95.3633 78.0484 95.1812 77.9597 95.1031 77.9597C94.908 77.9597 93.8933 76.9347 93.6331 76.4813C93.4249 76.0871 93.477 75.4662 93.7762 75.0424C93.8803 74.8847 94.2185 74.4017 94.5047 73.9681C95.2722 72.8346 95.3763 72.7065 95.7276 72.4897C95.8967 72.3812 96.2609 72.0264 96.5341 71.7012C97.2366 70.8733 98.4595 69.6511 99.3311 68.8922C100.645 67.7489 103.26 64.9006 104.001 63.7967C104.587 62.8998 105.107 61.8649 105.549 60.7019C106.057 59.3812 106.226 58.7012 106.941 55.291C107.865 50.8657 108.711 47.4161 110.259 41.7391C110.922 39.3145 111.378 37.9149 112.21 35.8452C113.459 32.7307 114.37 30.9665 116.412 27.6943C117.115 26.5806 117.96 25.664 119.86 23.9786C121.356 22.648 122.149 22.1454 125.454 20.3812C128.459 18.7747 129.812 17.9467 131.073 16.9316C132.205 16.0051 132.804 15.2856 133.35 14.1719C134.014 12.8216 133.988 12.1514 133.22 10.9589C130.982 7.52899 125.115 4.72005 116.946 3.1628C111.456 2.11807 101.621 1.01421 94.0624 0.590393C89.262 0.32428 80.6109 0.16658 75.3942 0.255295ZM86.2959 2.85727C91.5256 2.99525 93.8803 3.11353 98.3554 3.45848C104.717 3.94142 113.394 5.05515 117.401 5.92247C120.9 6.67152 124.517 7.90352 126.468 9.00739C128.745 10.2887 130.423 11.9248 130.423 12.8414C130.423 13.4327 130.189 13.8565 129.655 14.2409C128.953 14.7337 126.976 15.532 126.195 15.6306C125.323 15.739 123.541 16.0544 123.203 16.1628C123.06 16.2121 122.657 16.2712 122.292 16.3107C121.642 16.3698 120.835 16.4486 118.715 16.6556C115.371 16.9809 108.893 17.4145 104.079 17.6314C102.935 17.6806 101.061 17.7693 99.9165 17.8285C98.7717 17.8778 97.744 17.9172 97.6399 17.927C94.5437 18.0059 89.9775 18.1537 88.5335 18.2326C84.1884 18.4593 79.9735 18.5184 70.3207 18.5184C60.6939 18.5184 56.9602 18.4691 50.0264 18.2326C48.4132 18.1833 45.7594 18.0946 44.1072 18.0355C37.3554 17.8088 33.0494 17.7299 25.6342 17.6905C21.3411 17.6708 17.5164 17.6215 17.1392 17.5919C16.7489 17.5525 15.3829 17.4835 14.082 17.4342C12.7811 17.385 11.1289 17.2963 10.4134 17.247C9.69794 17.1878 8.76128 17.1189 8.33198 17.0991C7.04407 17.0499 4.44223 16.2811 4.09099 15.8474C3.67469 15.3448 3.55761 14.9013 3.72673 14.507C4.22108 13.3736 5.86023 11.905 7.68152 10.9687C9.38572 10.1014 12.4429 9.06653 15.6041 8.2879C21.4842 6.83908 31.3712 5.42967 41.1801 4.63133C41.9347 4.5722 43.0404 4.48351 43.6519 4.43422C46.9302 4.16811 52.316 3.84286 60.0434 3.44862C61.1492 3.38948 62.7884 3.30078 63.686 3.25151C65.4552 3.15294 69.4621 2.9854 73.0526 2.86713C76.435 2.74886 82.211 2.74886 86.2959 2.85727Z" fill="#1A1C20"/>
<path d="M19.39 55.203C15.7214 55.5381 13.5749 55.824 11.7146 56.1985C11.0642 56.3365 8.94366 56.849 8.59242 56.9672C8.44931 57.0067 8.09807 57.1249 7.81187 57.2136C5.92554 57.8149 4.62462 58.4555 4.29939 58.9483C3.85708 59.5791 4.26036 60.338 5.11897 60.5055C5.7304 60.6337 6.14669 60.545 7.27849 60.0226C8.46232 59.4805 11.2203 58.7315 13.4058 58.3668C14.6807 58.15 16.7231 57.9331 16.9183 57.9923C17.0744 58.0317 17.1134 58.2288 17.1134 58.9089C17.1264 60.8209 17.946 62.0431 19.351 62.2402C20.3787 62.388 21.2894 61.8854 21.7707 60.8899C22.0049 60.3971 22.2911 59.0173 22.3561 58.0514L22.3821 57.6079L23.0716 57.5389C24.1774 57.4403 24.7498 56.8687 24.5156 56.0999C24.3986 55.6958 24.0733 55.4002 23.5269 55.2326C23.0586 55.0749 20.8991 55.065 19.39 55.203Z" fill="#1A1C20"/>
<path d="M108.893 58.2691C108.36 58.5845 108.139 59.0576 108.308 59.5307C108.633 60.4572 111.456 61.5807 114.63 62.0637C116.412 62.3298 120.406 62.3002 122.878 62.0045C127.054 61.5117 127.978 61.3048 128.524 60.743C128.875 60.3882 128.875 59.718 128.524 59.3631C127.991 58.8112 127.535 58.7915 124.959 59.1759C123.698 59.3631 122.032 59.5898 121.252 59.6785C119.587 59.8658 116.556 59.8954 115.333 59.7278C113.563 59.5011 111.82 58.9689 110.91 58.3973C110.246 57.9735 109.466 57.9242 108.893 58.2691Z" fill="#1A1C20"/>
</svg>
